<?xml version="1.0" standalone="no"?>
<!DOCTYPE svg PUBLIC "-//W3C//DTD SVG 20010904//EN"
 "http://www.w3.org/TR/2001/REC-SVG-20010904/DTD/svg10.dtd">
<svg version="1.0" xmlns="http://www.w3.org/2000/svg"
 width="600.000000pt" height="151.000000pt" viewBox="0 0 600.000000 151.000000"
 preserveAspectRatio="xMidYMid meet">

<g transform="translate(0.000000,151.000000) scale(0.100000,-0.100000)"
fill="#000000" stroke="none">
<path d="M537 1329 c-211 -50 -352 -256 -334 -488 8 -102 29 -167 78 -240 45
-67 108 -119 189 -152 48 -20 72 -23 195 -24 158 0 206 13 299 81 l48 36 -58
59 c-57 58 -58 58 -79 40 -11 -10 -40 -29 -65 -42 -39 -21 -59 -24 -145 -24
-92 0 -104 2 -154 30 -99 55 -144 139 -145 270 -1 79 2 97 27 147 80 163 293
218 453 116 l47 -30 50 51 c57 57 57 59 -21 111 -71 47 -159 70 -261 69 -47
-1 -103 -5 -124 -10z"/>
<path d="M1105 1318 c-49 -26 -60 -86 -25 -131 53 -67 160 -24 160 64 0 11
-13 34 -29 50 -31 31 -70 37 -106 17z"/>
<path d="M2640 880 l0 -450 35 0 35 0 2 397 3 397 173 -263 c95 -144 178 -261
184 -259 6 2 87 120 180 262 l168 259 0 -397 0 -396 35 0 35 0 0 450 0 450
-42 0 -43 0 -165 -256 c-90 -141 -167 -257 -170 -259 -3 -2 -82 113 -175 256
l-170 259 -42 0 -43 0 0 -450z"/>
<path d="M4980 1134 l0 -197 -40 45 c-53 61 -123 91 -215 91 -93 1 -162 -23
-223 -78 -72 -65 -96 -126 -97 -245 0 -88 2 -100 33 -163 41 -82 97 -128 189
-153 117 -32 245 4 318 88 l35 42 0 -67 0 -67 30 0 30 0 0 450 0 450 -30 0
-30 0 0 -196z m-144 -148 c154 -72 192 -292 73 -421 -77 -83 -204 -104 -312
-51 -183 89 -178 391 8 477 60 28 166 25 231 -5z"/>
<path d="M1525 1233 c-16 -2 -43 -5 -60 -8 l-30 -5 0 -77 0 -78 -57 -3 -58 -3
0 -64 0 -64 58 -3 57 -3 5 -185 c6 -225 17 -255 113 -295 65 -27 228 -14 226
18 -2 35 -38 112 -50 108 -60 -15 -86 -12 -115 12 l-29 25 -3 161 -3 161 90 0
91 0 0 65 0 65 -90 0 -90 0 0 90 c0 66 -3 90 -12 89 -7 -1 -26 -4 -43 -6z"/>
<path d="M3881 1065 c-144 -41 -231 -158 -231 -314 0 -96 24 -163 82 -226 67
-73 128 -99 238 -99 101 0 155 20 223 83 68 63 92 125 92 241 0 84 -3 102 -28
152 -67 135 -226 205 -376 163z m206 -76 c24 -12 59 -39 78 -62 113 -131 70
-345 -82 -417 -58 -27 -161 -30 -219 -5 -120 50 -180 191 -140 329 45 153 216
226 363 155z"/>
<path d="M5183 1048 c4 -13 60 -155 126 -316 l119 -294 -59 -134 c-32 -75 -59
-137 -59 -140 0 -2 15 -4 33 -4 l32 0 193 448 c105 246 192 451 192 455 0 5
-15 7 -32 5 -32 -3 -35 -7 -85 -123 -28 -66 -79 -189 -114 -273 -34 -84 -65
-149 -70 -145 -4 4 -54 127 -112 273 l-105 265 -32 3 c-30 3 -32 1 -27 -20z"/>
<path d="M1070 750 l0 -310 75 0 75 0 0 310 0 310 -75 0 -75 0 0 -310z"/>
<path d="M1957 778 c63 -156 119 -296 125 -311 9 -24 3 -45 -46 -156 -31 -71
-56 -131 -56 -135 0 -4 37 -6 82 -4 l82 3 183 425 c100 234 185 433 189 443 5
15 -3 17 -78 17 l-83 0 -87 -218 c-48 -119 -91 -216 -95 -214 -4 1 -20 39 -35
85 -15 45 -49 142 -74 215 l-46 132 -88 0 -88 0 115 -282z"/>
</g>
</svg>
